DBRep_DrawableShape

CASCADE Topology V1, (c) Matra-Datavision
Locations 0
Curve2ds 24
1 0 1.5707963267948966 1 0 
1 3.1415926535897931 0 0 1 
1 3.1415926535897931 0 0 1 
1 0 -1.5707963267948966 1 0 
1 6.2831853071795862 -6.2831853071795862 0 1 
1 0 -6.2831853071795862 0 1 
1 0 1.5707963267948966 1 0 
1 0 -1.5707963267948966 1 0 
1 0 1.5707963267948966 1 0 
1 3.1415926535897931 0 0 1 
1 3.1415926535897931 0 0 1 
1 0 -1.5707963267948966 1 0 
1 6.2831853071795862 -6.2831853071795862 0 1 
1 0 -6.2831853071795862 0 1 
1 0 1.5707963267948966 1 0 
1 0 -1.5707963267948966 1 0 
1 0 1.5707963267948966 1 0 
1 3.1415926535897931 0 0 1 
1 3.1415926535897931 0 0 1 
1 0 -1.5707963267948966 1 0 
1 6.2831853071795862 -6.2831853071795862 0 1 
1 0 -6.2831853071795862 0 1 
1 0 1.5707963267948966 1 0 
1 0 -1.5707963267948966 1 0 
Curves 18
1 -10 -10 -10 0 0 1 
1 -10 -10 10 -0 1 0 
1 -10 10 -10 0 0 1 
1 -10 -10 -10 -0 1 0 
1 -10 -10 -10 1 0 -0 
1 10 -10 -10 0 0 1 
1 -10 -10 10 1 0 -0 
1 -10 10 10 1 0 -0 
1 10 -10 10 -0 1 0 
1 -10 10 -10 1 0 -0 
1 10 10 -10 0 0 1 
1 10 -10 -10 -0 1 0 
7 0 0  7 8 2  3 0 -0.5  2.7756005247435867 2.7481009910311487e-17 -0.49999999999999994  2.5513975203629431 5.493795907770566e-17 -0.38247814366166327  2.3997677105416662 7.3507255203009828e-17 -0.14768786911909718  2.3997677105415924 7.3507255203006697e-17 0.14768786911909676  2.5513975203629804 5.4937959077707429e-17 0.38247814366166377  2.7756005247435809 2.7481009910311016e-17 0.50000000000000022  3 0 0.5 
 -1.5707963267948966 8 1.5707963267948966 8
2 3 0 0 -2.4492935982947064e-16 -1 0 1 -2.4492935982947064e-16 0 0 0 1 0.5
7 0 0  7 8 2  1 0 -0.5  0.77560052474358554 2.7481009910311487e-17 -0.49999999999999994  0.55139752036295919 5.493795907770566e-17 -0.38247814366166327  0.39976771054163401 7.3507255203009828e-17 -0.14768786911909718  0.39976771054162241 7.3507255203006697e-17 0.14768786911909676  0.55139752036296485 5.4937959077707429e-17 0.38247814366166377  0.77560052474358498 2.7481009910311016e-17 0.50000000000000022  1 0 0.5 
 -1.5707963267948966 8 1.5707963267948966 8
2 1 0 0 -2.4492935982947064e-16 -1 0 1 -2.4492935982947064e-16 0 0 0 1 0.5
7 0 0  7 8 2  -1 0 -0.5  -1.2243994752564196 2.7481009910311487e-17 -0.49999999999999994  -1.4486024796370136 5.493795907770566e-17 -0.38247814366166327  -1.6002322894584191 7.3507255203009828e-17 -0.14768786911909718  -1.6002322894583252 7.3507255203006697e-17 0.14768786911909676  -1.4486024796370638 5.4937959077707429e-17 0.38247814366166377  -1.2243994752564076 2.7481009910311016e-17 0.50000000000000022  -1 0 0.5 
 -1.5707963267948966 8 1.5707963267948966 8
2 -1 0 0 -2.4492935982947064e-16 -1 0 1 -2.4492935982947064e-16 0 0 0 1 0.5
Polygon3D 0
PolygonOnTriangulations 0
Surfaces 12
1 -10 -10 -10 1 0 -0 0 0 1 0 -1 0 
1 -10 -10 -10 -0 1 0 0 0 1 1 0 -0 
1 -10 -10 10 0 0 1 1 0 -0 -0 1 0 
1 -10 10 -10 -0 1 0 0 0 1 1 0 -0 
1 -10 -10 -10 0 0 1 1 0 -0 -0 1 0 
1 10 -10 -10 1 0 -0 0 0 1 0 -1 0 
10 3.1415926535897931 6.2831853071795862 -1.5707963267948966 1.5707963267948966
4 3 0 0 0 0 1 1 0 -0 -0 1 0 0.5
10 0 3.1415926535897931 -1.5707963267948966 1.5707963267948966
4 3 0 0 0 0 1 1 0 -0 -0 1 0 0.5
10 3.1415926535897931 6.2831853071795862 -1.5707963267948966 1.5707963267948966
4 1 0 0 0 0 1 1 0 -0 -0 1 0 0.5
10 0 3.1415926535897931 -1.5707963267948966 1.5707963267948966
4 1 0 0 0 0 1 1 0 -0 -0 1 0 0.5
10 3.1415926535897931 6.2831853071795862 -1.5707963267948966 1.5707963267948966
4 -1 0 0 0 0 1 1 0 -0 -0 1 0 0.5
10 0 3.1415926535897931 -1.5707963267948966 1.5707963267948966
4 -1 0 0 0 0 1 1 0 -0 -0 1 0 0.5
Triangulations 0

TShapes 74
Ve
1e-07
-10 -10 10
0 0

0101101
*
Ve
1e-07
-10 -10 -10
0 0

0101101
*
Ed
 1e-07 1 1 0
1  1 0 0 20
0

0101000
-74 0 +73 0 *
Ve
1e-07
-10 10 10
0 0

0101101
*
Ed
 1e-07 1 1 0
1  2 0 0 20
0

0101000
-71 0 +74 0 *
Ve
1e-07
-10 10 -10
0 0

0101101
*
Ed
 1e-07 1 1 0
1  3 0 0 20
0

0101000
-71 0 +69 0 *
Ed
 1e-07 1 1 0
1  4 0 0 20
0

0101000
-69 0 +73 0 *
Wi

0101100
-72 0 -70 0 +68 0 +67 0 *
Fa
0  1e-07 1 0

0111000
+66 0 *
Ve
1e-07
10 -10 -10
0 0

0101101
*
Ed
 1e-07 1 1 0
1  5 0 0 20
0

0101000
-64 0 +73 0 *
Ve
1e-07
10 -10 10
0 0

0101101
*
Ed
 1e-07 1 1 0
1  6 0 0 20
0

0101000
-62 0 +64 0 *
Ed
 1e-07 1 1 0
1  7 0 0 20
0

0101000
-62 0 +74 0 *
Wi

0101100
-63 0 -61 0 +60 0 +72 0 *
Fa
0  1e-07 2 0

0111000
+59 0 *
Ve
1e-07
10 10 10
0 0

0101101
*
Ed
 1e-07 1 1 0
1  8 0 0 20
0

0101000
-57 0 +71 0 *
Ed
 1e-07 1 1 0
1  9 0 0 20
0

0101000
-57 0 +62 0 *
Wi

0101100
-70 0 -56 0 +55 0 +60 0 *
Fa
0  1e-07 3 0

0111000
+54 0 *
Ve
1e-07
10 10 -10
0 0

0101101
*
Ed
 1e-07 1 1 0
1  10 0 0 20
0

0101000
-52 0 +69 0 *
Ed
 1e-07 1 1 0
1  11 0 0 20
0

0101000
-57 0 +52 0 *
Wi

0101100
-51 0 -50 0 +56 0 +68 0 *
Fa
0  1e-07 4 0

0111000
+49 0 *
Ed
 1e-07 1 1 0
1  12 0 0 20
0

0101000
-52 0 +64 0 *
Wi

0101100
-67 0 -51 0 +47 0 +63 0 *
Fa
0  1e-07 5 0

0111000
+46 0 *
Wi

0101100
-61 0 -55 0 +50 0 +47 0 *
Fa
0  1e-07 6 0

0111000
+44 0 *
Sh

0101100
-65 0 -58 0 +53 0 +48 0 -45 0 +43 0 *
Ve
1e-05
3 0 0.5
0 0

0101101
*
Ed
 1e-07 1 1 1
2  1 7 0 3.14159265358979 6.28318530717959
0

0101000
-41 0 +41 0 *
Ve
1e-05
3 0 -0.5
0 0

0101101
*
Ed
 1e-05 1 1 0
1  13 0 -1.5707963267949 1.5707963267949
2  2 7 0 -1.5707963267949 1.5707963267949
2  3 8 0 -1.5707963267949 1.5707963267949
0

0101000
-41 0 +39 0 *
Ed
 1e-07 1 1 1
2  4 7 0 3.14159265358979 6.28318530717959
0

0101000
+39 0 -39 0 *
Ed
 1e-07 1 1 0
1  14 0 4.71238898038469 7.85398163397448
2  5 7 0 4.71238898038469 7.85398163397448
2  6 8 0 4.71238898038469 7.85398163397448
0

0101000
+39 0 -41 0 *
Wi

0101100
-40 0 -38 0 +37 0 +36 0 *
Fa
0  1e-07 7 0

0111000
+35 0 *
Ed
 1e-07 1 1 1
2  7 8 0 0 3.14159265358979
0

0101000
-41 0 +41 0 *
Ed
 1e-07 1 1 1
2  8 8 0 0 3.14159265358979
0

0101000
+39 0 -39 0 *
Wi

0101100
-33 0 -36 0 +32 0 +38 0 *
Fa
0  1e-07 8 0

0111000
+31 0 *
Sh

0101100
-34 0 -30 0 *
Ve
1e-05
1 0 0.5
0 0

0101101
*
Ed
 1e-07 1 1 1
2  9 9 0 3.14159265358979 6.28318530717959
0

0101000
-28 0 +28 0 *
Ve
1e-05
1 0 -0.5
0 0

0101101
*
Ed
 1e-05 1 1 0
1  15 0 -1.5707963267949 1.5707963267949
2  10 9 0 -1.5707963267949 1.5707963267949
2  11 10 0 -1.5707963267949 1.5707963267949
0

0101000
-28 0 +26 0 *
Ed
 1e-07 1 1 1
2  12 9 0 3.14159265358979 6.28318530717959
0

0101000
+26 0 -26 0 *
Ed
 1e-07 1 1 0
1  16 0 4.71238898038469 7.85398163397448
2  13 9 0 4.71238898038469 7.85398163397448
2  14 10 0 4.71238898038469 7.85398163397448
0

0101000
+26 0 -28 0 *
Wi

0101100
-27 0 -25 0 +24 0 +23 0 *
Fa
0  1e-07 9 0

0111000
+22 0 *
Ed
 1e-07 1 1 1
2  15 10 0 0 3.14159265358979
0

0101000
-28 0 +28 0 *
Ed
 1e-07 1 1 1
2  16 10 0 0 3.14159265358979
0

0101000
+26 0 -26 0 *
Wi

0101100
-20 0 -23 0 +19 0 +25 0 *
Fa
0  1e-07 10 0

0111000
+18 0 *
Sh

0101100
-21 0 -17 0 *
Ve
1e-05
-1 0 0.5
0 0

0101101
*
Ed
 1e-07 1 1 1
2  17 11 0 3.14159265358979 6.28318530717959
0

0101000
-15 0 +15 0 *
Ve
1e-05
-1 0 -0.5
0 0

0101101
*
Ed
 1e-05 1 1 0
1  17 0 -1.5707963267949 1.5707963267949
2  18 11 0 -1.5707963267949 1.5707963267949
2  19 12 0 -1.5707963267949 1.5707963267949
0

0101000
-15 0 +13 0 *
Ed
 1e-07 1 1 1
2  20 11 0 3.14159265358979 6.28318530717959
0

0101000
+13 0 -13 0 *
Ed
 1e-07 1 1 0
1  18 0 4.71238898038469 7.85398163397448
2  21 11 0 4.71238898038469 7.85398163397448
2  22 12 0 4.71238898038469 7.85398163397448
0

0101000
+13 0 -15 0 *
Wi

0101100
-14 0 -12 0 +11 0 +10 0 *
Fa
0  1e-07 11 0

0111000
+9 0 *
Ed
 1e-07 1 1 1
2  23 12 0 0 3.14159265358979
0

0101000
-15 0 +15 0 *
Ed
 1e-07 1 1 1
2  24 12 0 0 3.14159265358979
0

0101000
+13 0 -13 0 *
Wi

0101100
-7 0 -10 0 +6 0 +12 0 *
Fa
0  1e-07 12 0

0111000
+5 0 *
Sh

0101100
-8 0 -4 0 *
So

0100000
+42 0 +29 0 +16 0 +3 0 *
Co

1100000
+2 0 *

+1 0 
##EGADS HEADER FILE-REV 1 ##
0
  1  4  12  12  30  14  3
1 5 1
_body
7
1 5 1
_brch
7
2 8 3
_tParams
 8.660254124447e-01  3.464101649779e-02  1.500000000000e+01 
    2 0 5
1 5 2
_body
1 1 
1 5 2
_brch
1 1 
3 7 8
PW:Name
#OuterBox
1 5 4
_hist
1 3 5 7 
1 7 3
_faceID
1 1 1 
    2 1 5
1 5 2
_body
1 3 
1 5 2
_brch
1 3 
3 7 8
PW:Name
#OuterBox
1 5 4
_hist
1 3 5 7 
1 7 3
_faceID
1 3 1 
    2 2 5
1 5 2
_body
1 6 
1 5 2
_brch
1 6 
3 7 8
PW:Name
#OuterBox
1 5 4
_hist
1 3 5 7 
1 7 3
_faceID
1 6 1 
    2 3 5
1 5 2
_body
1 4 
1 5 2
_brch
1 4 
3 7 8
PW:Name
#OuterBox
1 5 4
_hist
1 3 5 7 
1 7 3
_faceID
1 4 1 
    2 4 5
1 5 2
_body
1 5 
1 5 2
_brch
1 5 
3 7 8
PW:Name
#OuterBox
1 5 4
_hist
1 3 5 7 
1 7 3
_faceID
1 5 1 
    2 5 5
1 5 2
_body
1 2 
1 5 2
_brch
1 2 
3 7 8
PW:Name
#OuterBox
1 5 4
_hist
1 3 5 7 
1 7 3
_faceID
1 2 1 
    2 6 9
1 5 2
_body
6 0 
1 5 2
_brch
6 0 
3 7 10
PW:Name
#BackSphere
2 14 1
PW:WallSpacing
 1.000000000000e-03
3 18 14
PW:DomainAlgorithm
#AdvancingFront
3 20 4
PW:DomainAdaptTarget
#true
3 20 4
PW:DomainAdaptSource
#true
1 5 2
_hist
6 7 
1 7 3
_faceID
6 0 1 
    2 7 9
1 5 2
_body
6 0 
1 5 2
_brch
6 0 
3 7 10
PW:Name
#BackSphere
2 14 1
PW:WallSpacing
 1.000000000000e-03
3 18 14
PW:DomainAlgorithm
#AdvancingFront
3 20 4
PW:DomainAdaptTarget
#true
3 20 4
PW:DomainAdaptSource
#true
1 5 2
_hist
6 7 
1 7 3
_faceID
6 0 2 
    2 8 10
1 5 2
_body
4 0 
1 5 2
_brch
4 0 
3 7 9
PW:Name
#MidSphere
2 14 1
PW:WallSpacing
 5.000000000000e-03
3 16 12
PW:DomainIsoType
#TriangleQuad
3 18 19
PW:DomainAlgorithm
#AdvancingFrontOrtho
3 20 4
PW:DomainAdaptTarget
#true
3 20 4
PW:DomainAdaptSource
#true
1 5 3
_hist
4 5 7 
1 7 3
_faceID
4 0 1 
    2 9 10
1 5 2
_body
4 0 
1 5 2
_brch
4 0 
3 7 9
PW:Name
#MidSphere
2 14 1
PW:WallSpacing
 5.000000000000e-03
3 16 12
PW:DomainIsoType
#TriangleQuad
3 18 19
PW:DomainAlgorithm
#AdvancingFrontOrtho
3 20 4
PW:DomainAdaptTarget
#true
3 20 4
PW:DomainAdaptSource
#true
1 5 3
_hist
4 5 7 
1 7 3
_faceID
4 0 2 
    2 10 9
1 5 2
_body
2 0 
1 5 2
_brch
2 0 
3 7 11
PW:Name
#FrontSphere
2 14 1
PW:WallSpacing
 1.000000000000e-03
3 18 8
PW:DomainAlgorithm
#Delaunay
3 20 4
PW:DomainAdaptTarget
#true
3 20 4
PW:DomainAdaptSource
#true
1 5 4
_hist
2 3 5 7 
1 7 3
_faceID
2 0 1 
    2 11 9
1 5 2
_body
2 0 
1 5 2
_brch
2 0 
3 7 11
PW:Name
#FrontSphere
2 14 1
PW:WallSpacing
 1.000000000000e-03
3 18 8
PW:DomainAlgorithm
#Delaunay
3 20 4
PW:DomainAdaptTarget
#true
3 20 4
PW:DomainAdaptSource
#true
1 5 4
_hist
2 3 5 7 
1 7 3
_faceID
2 0 2 
    4 0 3
1 5 2
_body
1 103 
1 6 1
_nface
2
1 7 5
_edgeID
1 1 1 3 1 
    4 1 3
1 5 2
_body
1 106 
1 6 1
_nface
2
1 7 5
_edgeID
1 1 1 6 1 
    4 2 3
1 5 2
_body
1 104 
1 6 1
_nface
2
1 7 5
_edgeID
1 1 1 4 1 
    4 3 3
1 5 2
_body
1 105 
1 6 1
_nface
2
1 7 5
_edgeID
1 1 1 5 1 
    4 4 3
1 5 2
_body
1 305 
1 6 1
_nface
2
1 7 5
_edgeID
1 3 1 5 1 
    4 5 3
1 5 2
_body
1 203 
1 6 1
_nface
2
1 7 5
_edgeID
1 2 1 3 1 
    4 6 3
1 5 2
_body
1 306 
1 6 1
_nface
2
1 7 5
_edgeID
1 3 1 6 1 
    4 7 3
1 5 2
_body
1 406 
1 6 1
_nface
2
1 7 5
_edgeID
1 4 1 6 1 
    4 8 3
1 5 2
_body
1 206 
1 6 1
_nface
2
1 7 5
_edgeID
1 2 1 6 1 
    4 9 3
1 5 2
_body
1 405 
1 6 1
_nface
2
1 7 5
_edgeID
1 4 1 5 1 
    4 10 3
1 5 2
_body
1 204 
1 6 1
_nface
2
1 7 5
_edgeID
1 2 1 4 1 
    4 11 3
1 5 2
_body
1 205 
1 6 1
_nface
2
1 7 5
_edgeID
1 2 1 5 1 
    4 12 3
1 5 2
_body
6 -3 
1 6 1
_nface
1
1 7 5
_edgeID
0 0 6 0 4 
    4 13 3
1 5 2
_body
6 0 
1 6 1
_nface
2
1 7 5
_edgeID
6 0 6 0 1 
    4 14 3
1 5 2
_body
6 -3 
1 6 1
_nface
1
1 7 5
_edgeID
0 0 6 0 1 
    4 15 3
1 5 2
_body
6 0 
1 6 1
_nface
2
1 7 5
_edgeID
6 0 6 0 2 
    4 16 3
1 5 2
_body
6 -3 
1 6 1
_nface
1
1 7 5
_edgeID
0 0 6 0 3 
    4 17 3
1 5 2
_body
6 -3 
1 6 1
_nface
1
1 7 5
_edgeID
0 0 6 0 2 
    4 18 3
1 5 2
_body
4 -3 
1 6 1
_nface
1
1 7 5
_edgeID
0 0 4 0 4 
    4 19 3
1 5 2
_body
4 0 
1 6 1
_nface
2
1 7 5
_edgeID
4 0 4 0 1 
    4 20 3
1 5 2
_body
4 -3 
1 6 1
_nface
1
1 7 5
_edgeID
0 0 4 0 1 
    4 21 3
1 5 2
_body
4 0 
1 6 1
_nface
2
1 7 5
_edgeID
4 0 4 0 2 
    4 22 3
1 5 2
_body
4 -3 
1 6 1
_nface
1
1 7 5
_edgeID
0 0 4 0 3 
    4 23 3
1 5 2
_body
4 -3 
1 6 1
_nface
1
1 7 5
_edgeID
0 0 4 0 2 
    4 24 3
1 5 2
_body
2 -3 
1 6 1
_nface
1
1 7 5
_edgeID
0 0 2 0 4 
    4 25 3
1 5 2
_body
2 0 
1 6 1
_nface
2
1 7 5
_edgeID
2 0 2 0 1 
    4 26 3
1 5 2
_body
2 -3 
1 6 1
_nface
1
1 7 5
_edgeID
0 0 2 0 1 
    4 27 3
1 5 2
_body
2 0 
1 6 1
_nface
2
1 7 5
_edgeID
2 0 2 0 2 
    4 28 3
1 5 2
_body
2 -3 
1 6 1
_nface
1
1 7 5
_edgeID
0 0 2 0 3 
    4 29 3
1 5 2
_body
2 -3 
1 6 1
_nface
1
1 7 5
_edgeID
0 0 2 0 2 
    5 0 2
1 7 1
_nodeID
1
1 6 1
_nedge
3
    5 1 2
1 7 1
_nodeID
2
1 6 1
_nedge
3
    5 2 2
1 7 1
_nodeID
3
1 6 1
_nedge
3
    5 3 2
1 7 1
_nodeID
4
1 6 1
_nedge
3
    5 4 2
1 7 1
_nodeID
5
1 6 1
_nedge
3
    5 5 2
1 7 1
_nodeID
6
1 6 1
_nedge
3
    5 6 2
1 7 1
_nodeID
7
1 6 1
_nedge
3
    5 7 2
1 7 1
_nodeID
8
1 6 1
_nedge
3
    5 8 2
1 7 1
_nodeID
9
1 6 1
_nedge
4
    5 9 2
1 7 1
_nodeID
10
1 6 1
_nedge
4
    5 10 2
1 7 1
_nodeID
11
1 6 1
_nedge
4
    5 11 2
1 7 1
_nodeID
12
1 6 1
_nedge
4
    5 12 2
1 7 1
_nodeID
13
1 6 1
_nedge
4
    5 13 2
1 7 1
_nodeID
14
1 6 1
_nedge
4
    0 0 0
