DBRep_DrawableShape

CASCADE Topology V1, (c) Matra-Datavision
Locations 0
Curve2ds 32
1 0 9.5 1 0 
1 0 9.5 1 0 
1 0 9.5 1 0 
1 0 9.5 1 0 
1 4.7123889803846897 -20 0 1 
1 6.2831853071795862 -0 0 1 
1 0 -0 0 1 
1 0 0 1 0 
1 1.5707963267948966 -4.7123889803846897 -0 1 
1 0 0 1 0 
1 4.7123889803846897 0 0 1 
1 0 0 1 0 
1 0 0 1 0 
1 1.5707963267948966 0 0 1 
1 1.5707963267948966 -20 0 1 
1 0 0 1 0 
1 6.2831853071795862 -0 0 1 
1 0 -0 0 1 
1 0 0 1 0 
1 1.5707963267948966 -4.7123889803846897 -0 1 
1 0 0 1 0 
1 4.7123889803846897 1.5707963267948966 0 -1 
1 0 0 1 0 
1 4.7123889803846897 1.5707963267948966 0 -1 
1 0 1.5707963267948966 1 0 
1 3.1415926535897931 0 0 1 
1 3.1415926535897931 0 0 1 
1 0 1.5707963267948966 1 0 
1 3.1415926535897931 0 0 1 
1 3.1415926535897931 0 0 1 
1 0 1.5707963267948966 1 0 
1 0 1.5707963267948966 1 0 
Curves 22
2 10 0 0 1 0 0 -0 0 1 0 -1 0 20
1 10 -10 0 0 -1 0 
2 10 0 0 1 0 0 -0 0 1 0 -1 0 0.5
2 10 0 0 1 0 0 -0 0 1 0 -1 0 0.5
1 10 -10 0 0 -1 0 
2 10 0 0 1 0 0 -0 0 1 0 -1 0 20
1 -19.5 20 0 1 0 -0 
1 0.5 4.898587196589413e-15 20 1 0 0 
2 0.5 0 0 1 0 0 -0 0 1 0 -1 0 20
2 0.5 0 0 0 0 1 1 0 -0 -0 1 0 20
1 0.5 0.5 0 1 0 0 
2 0.5 0 0 0 0 1 1 0 -0 -0 1 0 0.5
2 0.5 0 0 0 0 1 1 0 -0 -0 1 0 0.5
1 0.5 -0.5 0 1 0 0 
1 -19.5 -20 0 1 0 -0 
2 0.5 0 0 0 0 1 1 0 -0 -0 1 0 20
1 0.5 1.2246467991473532e-16 0.5 1 0 0 
2 0.5 0 0 1 0 0 -0 0 1 0 -1 0 0.5
2 0.5 0 0 1 0 0 -0 0 1 0 -1 0 0.5
2 0.5 0 0 1 0 0 -0 0 1 0 -1 0 20
7 0 0  9 10 2  0.49999999999999645 3.944304526105059e-31 -20.000000000000007  -6.4813170079772018 8.5496475276522463e-16 -19.999999999999901  -13.462706466643203 1.709938378180869e-15 -17.258450668294987  -19.213142235682458 2.4141636540064962e-15 -11.775274377059549  -22.504812608495968 2.8172770125979249e-15 -4.1951322113493461  -22.504812608493847 2.8172770125976831e-15 4.1951322113491614  -19.213142235684035 2.4141636540066789e-15 11.775274377059958  -13.462706466642395 1.7099383781807736e-15 17.258450668294643  -6.4813170079774141 8.5496475276525066e-16 20.000000000000011  0.49999999999999645 3.944304526105059e-31 20.000000000000004 
 -1.5707963267948966 10 1.5707963267948966 10
7 0 0  7 8 2  0.49999999999999983 0 -0.5  0.2756005247435856 2.7481009910311487e-17 -0.49999999999999994  0.051397520362962038 5.493795907770566e-17 -0.38247814366166327  -0.1002322894583729 7.3507255203009828e-17 -0.14768786911909718  -0.10023228945837021 7.3507255203006697e-17 0.14768786911909676  0.051397520362960032 5.4937959077707429e-17 0.38247814366166377  0.27560052474358665 2.7481009910311016e-17 0.50000000000000022  0.49999999999999983 0 0.5 
 -1.5707963267948966 8 1.5707963267948966 8
Polygon3D 0
PolygonOnTriangulations 0
Surfaces 10
1 10 0 0 1 0 0 -0 0 1 0 -1 0 
10 3.1415926535897931 6.2831853071795862 0 9.5
2 0.5 0 0 1 0 0 -0 0 1 0 -1 0 20
10 3.1415926535897931 6.2831853071795862 0 9.5
2 0.5 0 0 1 0 0 -0 0 1 0 -1 0 0.5
10 0 3.1415926535897931 0 9.5
2 0.5 0 0 1 0 0 -0 0 1 0 -1 0 0.5
10 0 3.1415926535897931 0 9.5
2 0.5 0 0 1 0 0 -0 0 1 0 -1 0 20
10 0 3.1415926535897931 -1.5707963267948966 1.5707963267948966
4 0.5 0 0 0 0 1 1 0 -0 -0 1 0 20
1 -19.5 -20 0 0 0 1 1 0 -0 -0 1 0 
10 0 3.1415926535897931 -1.5707963267948966 1.5707963267948966
4 0.5 0 0 0 0 1 1 0 -0 -0 1 0 0.5
10 3.1415926535897931 6.2831853071795862 -1.5707963267948966 1.5707963267948966
4 0.5 0 0 0 0 1 1 0 -0 -0 1 0 0.5
10 3.1415926535897931 6.2831853071795862 -1.5707963267948966 1.5707963267948966
4 0.5 0 0 0 0 1 1 0 -0 -0 1 0 20
Triangulations 0

TShapes 63
Ve
1.00000481453317e-07
10 20 -4.81453316836789e-13
0 0

0101101
*
Ve
1e-07
10 4.89858719658941e-15 20
0 0

0101101
*
Ed
 1e-07 1 1 0
1  1 0 4.71238898038467 6.28318530717959
2  1 2 0 4.71238898038467 6.28318530717959
0

0101000
+63 0 -62 0 *
Ve
2.00001e-07
10 0.5 -9.18485099360515e-17
0 0

0101101
*
Ed
 1e-07 1 1 0
1  2 0 -30 -10.5
0

0101000
+63 0 -60 0 *
Ve
1e-07
10 1.22464679914735e-16 0.5
0 0

0101101
*
Ed
 1e-07 1 1 0
1  3 0 4.71238898038469 6.28318530717959
2  2 3 0 4.71238898038469 6.28318530717959
0

0101000
+60 0 -58 0 *
Ve
2.00001e-07
10 -0.5 3.06161699786838e-17
0 0

0101101
*
Ed
 1e-07 1 1 0
1  4 0 0 1.5707963267949
2  3 4 0 0 1.5707963267949
0

0101000
+58 0 -56 0 *
Ve
1.00000481224469e-07
10 -20 -4.81224469287744e-13
0 0

0101101
*
Ed
 1e-07 1 1 0
1  5 0 -9.5 10
0

0101000
+56 0 -54 0 *
Ed
 1e-07 1 1 0
1  6 0 0 1.57079632679492
2  4 5 0 0 1.57079632679492
0

0101000
+62 0 -54 0 *
Wi

0101000
+61 0 -59 0 -57 0 -55 0 -53 0 +52 0 *
Fa
0  1e-07 1 0

0111000
+51 0 *
Ve
1.00000481453317e-07
0.5 20 -4.81453316836789e-13
0 0

0101101
*
Ed
 1e-07 1 1 0
1  7 0 20 29.5
2  5 2 0 20 29.5
0

0101000
+49 0 -63 0 *
Ve
0.00141425000100055
0.5 3.67394039744206e-15 20
0 0

0101101
*
Ed
 1e-07 1 1 0
1  8 0 0 9.5
2  6 2 0 0 9.5
2  7 5 0 0 9.5
0

0101000
+47 0 -62 0 *
Ed
 1e-07 1 1 0
1  9 0 4.71238898038467 6.28318530717959
2  8 2 0 4.71238898038467 6.28318530717959
2  9 6 0 4.71238898038467 6.28318530717959
0

0101000
+49 0 -47 0 *
Wi

0101000
-48 0 -61 0 +46 0 +45 0 *
Fa
0  1e-07 2 0

0111000
+44 0 *
Ve
1.07376197483921e-05
-19.4999992623802 3.00100354821524e-15 0
0 0

0101101
*
Ed
 1e-07 1 1 0
1  10 0 1.5707963267949 3.14159265358979
2  10 6 0 1.5707963267949 3.14159265358979
0

0101000
+49 0 -42 0 *
Ve
2.00001e-07
0.5 0.5 -9.18485099360515e-17
0 0

0101101
*
Ed
 1e-07 1 1 0
1  11 0 0 9.5
2  11 3 0 0 9.5
0

0101000
+40 0 -60 0 *
Ve
1.0100001e-05
6.58546537946059e-06 6.12315334704579e-17 -1.11022302462516e-16
0 0

0101101
*
Ed
 1e-07 1 1 0
1  12 0 1.5707963267949 3.14159265358979
2  12 8 0 1.5707963267949 3.14159265358979
0

0101000
+40 0 -38 0 *
Ve
2.00001e-07
0.5 -0.5 3.06161699786838e-17
0 0

0101101
*
Ed
 1e-07 1 1 0
1  13 0 3.14159265358979 4.71238898038469
2  13 9 0 3.14159265358979 4.71238898038469
0

0101000
+38 0 -36 0 *
Ed
 1e-07 1 1 0
1  14 0 0 9.5
2  14 4 0 0 9.5
0

0101000
+36 0 -56 0 *
Ve
1.00000481224469e-07
0.5 -20 -4.81224469287744e-13
0 0

0101101
*
Ed
 1e-07 1 1 0
1  15 0 20 29.5
2  15 5 0 20 29.5
0

0101000
+33 0 -54 0 *
Ed
 1e-07 1 1 0
1  16 0 3.14159265358979 4.71238898038469
2  16 10 0 3.14159265358979 4.71238898038469
0

0101000
+42 0 -33 0 *
Wi

0101000
+41 0 -48 0 -59 0 +39 0 -37 0 -35 0 -34 0 -53 0 +32 0 +31 0 
*
Fa
0  1e-07 7 0

0111000
+30 0 *
Ve
0.00022365000100002
0.5 6.12323399573677e-17 0.5
0 0

0101101
*
Ed
 1e-07 1 1 0
1  17 0 0 9.5
2  17 3 0 0 9.5
2  18 4 0 0 9.5
0

0101000
+28 0 -58 0 *
Ed
 1e-07 1 1 0
1  18 0 4.71238898038469 6.28318530717959
2  19 3 0 4.71238898038469 6.28318530717959
2  20 8 0 4.71238898038469 6.28318530717959
0

0101000
+40 0 -28 0 *
Wi

0101000
-39 0 -57 0 +27 0 +26 0 *
Fa
0  1e-07 3 0

0111000
+25 0 *
Ed
 1e-07 1 1 0
1  19 0 0 1.5707963267949
2  21 4 0 0 1.5707963267949
2  22 9 0 0 1.5707963267949
0

0101000
+28 0 -36 0 *
Wi

0101000
-55 0 +34 0 +23 0 -27 0 *
Fa
0  1e-07 4 0

0111000
+22 0 *
Ed
 1e-07 1 1 0
1  20 0 0 1.57079632679492
2  23 5 0 0 1.57079632679492
2  24 10 0 0 1.57079632679492
0

0101000
+47 0 -33 0 *
Wi

0101000
-52 0 +32 0 +20 0 -46 0 *
Fa
0  1e-07 5 0

0111000
+19 0 *
Ed
 1e-07 1 1 1
2  25 6 0 1.5707963267949 3.14159265358979
0

0101100
+47 0 -47 0 *
Ed
 1e-05 1 1 0
1  21 0 0 1.5707963267949
2  26 6 0 0 1.5707963267949
2  27 10 0 0 1.5707963267949
0

0101000
+42 0 -47 0 *
Wi

0101000
-45 0 -17 0 +16 0 +41 0 *
Fa
0  1e-07 6 0

0111000
+15 0 *
Ed
 1e-07 1 1 1
2  28 8 0 1.5707963267949 3.14159265358979
0

0101100
+28 0 -28 0 *
Ed
 1e-05 1 1 0
1  22 0 8.32692358556125e-17 1.5707963267949
2  29 8 0 8.32692358556125e-17 1.5707963267949
2  30 9 0 8.32692358556125e-17 1.5707963267949
0

0101000
+38 0 -28 0 *
Wi

0101000
+37 0 -26 0 -13 0 +12 0 *
Fa
0  1e-07 8 0

0111000
+11 0 *
Ed
 1e-07 1 1 1
2  31 9 0 3.14159265358979 4.71238898038469
0

0101100
+28 0 -28 0 *
Wi

0101000
-9 0 -23 0 +35 0 -12 0 *
Fa
0  1e-07 9 0

0111000
+8 0 *
Ed
 1e-07 1 1 1
2  32 10 0 3.14159265358979 4.71238898038469
0

0101100
+47 0 -47 0 *
Wi

0101000
-20 0 +31 0 -16 0 -6 0 *
Fa
0  1e-07 10 0

0111000
+5 0 *
Sh

0101100
+50 0 +43 0 -29 0 -24 0 -21 0 +18 0 +14 0 -10 0 -7 0 +4 0 
*
So

0100000
+3 0 *
Co

1100000
+2 0 *

+1 0 
##EGADS HEADER FILE-REV 1 ##
0
  1  1  10  10  26  14  7
2 16 1
PW:TRexIsoHeight
 8.660000000000e-01
2 17 1
PW:TRexGrowthRate
 1.200000000000e+00
2 16 1
PW:BoundaryDecay
 8.000000000000e-01
3 11 10
PW:TRexType
#TetPyramid
1 5 1
_body
11
1 5 1
_brch
11
2 8 3
_tParams
 1.444185964865e+00  5.776743859462e-02  1.500000000000e+01 
    2 0 5
1 5 2
_body
4 2 
1 5 2
_brch
4 2 
3 7 5
PW:Name
#Outer
1 5 5
_hist
4 5 7 9 11 
1 7 3
_faceID
4 2 1 
    2 1 5
1 5 2
_body
4 4 
1 5 2
_brch
4 4 
3 7 5
PW:Name
#Outer
1 5 5
_hist
4 5 7 9 11 
1 7 3
_faceID
4 4 1 
    2 2 5
1 5 2
_body
10 6 
1 5 2
_brch
10 6 
3 7 8
PW:Name
#Symmetry
1 5 2
_hist
10 11 
1 7 3
_faceID
10 6 1 
    2 3 9
1 5 2
_body
8 4 
1 5 2
_brch
8 4 
3 7 8
PW:Name
#Cylinder
2 14 1
PW:WallSpacing
 1.000000000000e-03
3 16 8
PW:DomainIsoType
#Triangle
3 18 14
PW:DomainAlgorithm
#AdvancingFront
3 17 8
PW:DomainTRexType
#Triangle
1 5 3
_hist
8 9 11 
1 7 3
_faceID
8 4 1 
    2 4 9
1 5 2
_body
8 3 
1 5 2
_brch
8 3 
3 7 8
PW:Name
#Cylinder
2 14 1
PW:WallSpacing
 1.000000000000e-03
3 16 8
PW:DomainIsoType
#Triangle
3 18 14
PW:DomainAlgorithm
#AdvancingFront
3 17 8
PW:DomainTRexType
#Triangle
1 5 3
_hist
8 9 11 
1 7 3
_faceID
8 3 1 
    2 5 5
1 5 2
_body
4 3 
1 5 2
_brch
4 3 
3 7 5
PW:Name
#Outer
1 5 5
_hist
4 5 7 9 11 
1 7 3
_faceID
4 3 1 
    2 6 5
1 5 2
_body
1 0 
1 5 2
_brch
1 0 
3 7 5
PW:Name
#Outer
1 5 6
_hist
1 3 5 7 9 11 
1 7 3
_faceID
1 0 2 
    2 7 9
1 5 2
_body
6 0 
1 5 2
_brch
6 0 
3 7 8
PW:Name
#Cylinder
2 14 1
PW:WallSpacing
 1.000000000000e-03
3 16 8
PW:DomainIsoType
#Triangle
3 18 14
PW:DomainAlgorithm
#AdvancingFront
3 17 8
PW:DomainTRexType
#Triangle
1 5 4
_hist
6 7 9 11 
1 7 3
_faceID
6 0 2 
    2 8 9
1 5 2
_body
6 0 
1 5 2
_brch
6 0 
3 7 8
PW:Name
#Cylinder
2 14 1
PW:WallSpacing
 1.000000000000e-03
3 16 8
PW:DomainIsoType
#Triangle
3 18 14
PW:DomainAlgorithm
#AdvancingFront
3 17 8
PW:DomainTRexType
#Triangle
1 5 4
_hist
6 7 9 11 
1 7 3
_faceID
6 0 1 
    2 9 5
1 5 2
_body
1 0 
1 5 2
_brch
1 0 
3 7 5
PW:Name
#Outer
1 5 6
_hist
1 3 5 7 9 11 
1 7 3
_faceID
1 0 1 
    4 0 3
1 5 2
_body
4 204 
1 7 5
_edgeID
4 2 4 4 1 
1 6 1
_nface
2
    4 1 3
1 5 2
_body
11 0 
1 7 5
_edgeID
4 2 10 6 2 
1 6 1
_nface
2
    4 2 3
1 5 2
_body
9 0 
1 7 5
_edgeID
4 2 8 4 1 
1 6 1
_nface
2
    4 3 3
1 5 2
_body
9 0 
1 7 5
_edgeID
4 2 8 3 1 
1 6 1
_nface
2
    4 4 3
1 5 2
_body
11 0 
1 7 5
_edgeID
4 2 10 6 1 
1 6 1
_nface
2
    4 5 3
1 5 2
_body
4 203 
1 7 5
_edgeID
4 2 4 3 1 
1 6 1
_nface
2
    4 6 3
1 5 2
_body
11 0 
1 7 5
_edgeID
4 4 10 6 1 
1 6 1
_nface
2
    4 7 3
1 5 2
_body
4 304 
1 6 1
_nface
2
1 7 5
_edgeID
4 3 4 4 1 
    4 8 3
1 5 2
_body
5 0 
1 7 5
_edgeID
1 0 4 4 1 
1 6 1
_nface
2
    4 9 3
1 5 2
_body
11 0 
1 7 5
_edgeID
1 0 10 6 2 
1 6 1
_nface
2
    4 10 3
1 5 2
_body
11 0 
1 7 5
_edgeID
8 4 10 6 1 
1 6 1
_nface
2
    4 11 3
1 5 2
_body
11 0 
1 7 5
_edgeID
6 0 10 6 2 
1 6 1
_nface
2
    4 12 3
1 5 2
_body
11 0 
1 7 5
_edgeID
6 0 10 6 1 
1 6 1
_nface
2
    4 13 3
1 5 2
_body
11 0 
1 7 5
_edgeID
8 3 10 6 1 
1 6 1
_nface
2
    4 14 3
1 5 2
_body
11 0 
1 7 5
_edgeID
4 3 10 6 1 
1 6 1
_nface
2
    4 15 3
1 5 2
_body
11 0 
1 7 5
_edgeID
1 0 10 6 1 
1 6 1
_nface
2
    4 16 3
1 5 2
_body
8 304 
1 6 1
_nface
2
1 7 5
_edgeID
8 3 8 4 1 
    4 17 3
1 5 2
_body
9 0 
1 7 5
_edgeID
6 0 8 4 1 
1 6 1
_nface
2
    4 18 3
1 5 2
_body
9 0 
1 7 5
_edgeID
6 0 8 3 1 
1 6 1
_nface
2
    4 19 3
1 5 2
_body
5 0 
1 7 5
_edgeID
1 0 4 3 1 
1 6 1
_nface
2
    4 20 3
1 5 2
_body
1 -3 
1 6 1
_nface
1
1 7 5
_edgeID
0 0 1 0 1 
    4 21 3
1 5 2
_body
1 0 
1 7 5
_edgeID
1 0 1 0 1 
1 6 1
_nface
2
    4 22 3
1 5 2
_body
6 -3 
1 6 1
_nface
1
1 7 5
_edgeID
0 0 6 0 1 
    4 23 3
1 5 2
_body
6 0 
1 7 5
_edgeID
6 0 6 0 1 
1 6 1
_nface
2
    4 24 3
1 5 2
_body
6 -3 
1 6 1
_nface
1
1 7 5
_edgeID
0 0 6 0 2 
    4 25 3
1 5 2
_body
1 -3 
1 6 1
_nface
1
1 7 5
_edgeID
0 0 1 0 2 
    5 0 2
1 7 1
_nodeID
1
1 6 1
_nedge
3
    5 1 2
1 7 1
_nodeID
2
1 6 1
_nedge
3
    5 2 2
1 7 1
_nodeID
3
1 6 1
_nedge
3
    5 3 2
1 7 1
_nodeID
4
1 6 1
_nedge
3
    5 4 2
1 7 1
_nodeID
5
1 6 1
_nedge
3
    5 5 2
1 7 1
_nodeID
6
1 6 1
_nedge
3
    5 6 2
1 7 1
_nodeID
7
1 6 1
_nedge
3
    5 7 2
1 7 1
_nodeID
8
1 6 1
_nedge
6
    5 8 2
1 7 1
_nodeID
9
1 6 1
_nedge
3
    5 9 2
1 7 1
_nodeID
10
1 6 1
_nedge
3
    5 10 2
1 7 1
_nodeID
11
1 6 1
_nedge
3
    5 11 2
1 7 1
_nodeID
12
1 6 1
_nedge
3
    5 12 2
1 7 1
_nodeID
13
1 6 1
_nedge
3
    5 13 2
1 7 1
_nodeID
14
1 6 1
_nedge
6
    0 0 0
